<svg class="logo" xmlns="http://www.w3.org/2000/svg" viewBox="0 0 209.88 83.76"><defs><style>.cls-1,.cls-2{fill:#fff;}.cls-1{fill-rule:evenodd;}.cls-3{fill:#ee2c3e;}</style></defs><title>SpaceApps Logo</title><g id="Layer_2" data-name="Layer 2"><g id="Layer_1-2" data-name="Layer 1"><path class="cls-1" d="M92.87,56c0-.48,0-.89,0-1.22a3.18,3.18,0,0,0-.16-.86,2.51,2.51,0,0,0-.32-.66,7.13,7.13,0,0,0-.48-.65c-.4-.48-.8-.93-1.2-1.34s-.82-.83-1.24-1.24-.85-.85-1.29-1.32-.9-1-1.38-1.57a3.62,3.62,0,0,1-.94-1.9,16.05,16.05,0,0,1-.14-2.37V37.91q0-5.43,5.11-5.43c1.84,0,3.13.45,3.88,1.34a6.24,6.24,0,0,1,1.12,4.09v6H93V38.31a4.13,4.13,0,0,0-.42-2,1.73,1.73,0,0,0-1.65-.76c-1.42,0-2.12.79-2.12,2.36v4.87a5.53,5.53,0,0,0,.14,1.51,3,3,0,0,0,.58,1A24.79,24.79,0,0,0,91.93,48a28.61,28.61,0,0,1,2.54,2.67,5.35,5.35,0,0,1,1.16,2.15,13.11,13.11,0,0,1,.28,3.08v4.71a6.07,6.07,0,0,1-1.18,4A4.9,4.9,0,0,1,90.79,66a4.91,4.91,0,0,1-3.89-1.39,5.92,5.92,0,0,1-1.22-4v-7H88.6v6.55a4.07,4.07,0,0,0,.46,2.07,1.74,1.74,0,0,0,1.65.8,2,2,0,0,0,1.66-.62,2.77,2.77,0,0,0,.5-1.81Zm14.35-17.16a3.24,3.24,0,0,0-.6-2.18,2.58,2.58,0,0,0-2-.7h-2.08V47.13h2.12a2.57,2.57,0,0,0,2-.68,3.11,3.11,0,0,0,.64-2.2V38.79ZM99.47,65.68V32.84h5.14a5.68,5.68,0,0,1,4.27,1.44,6.32,6.32,0,0,1,1.38,4.51v5.38c0,2.08-.45,3.58-1.36,4.51a5.74,5.74,0,0,1-4.26,1.4h-2.13v15.6Zm19.71-8.3q-.53-4.23-1-8.4t-1-8.44q-.52,4.27-1.06,8.44t-1.1,8.4Zm1.08,8.3-.72-5.5h-4.92l-.72,5.5h-3l4.52-32.84H119l4.27,32.84ZM133,53.63h2.76v6.79a6.6,6.6,0,0,1-1.14,4.25A4.51,4.51,0,0,1,130.93,66q-5.24,0-5.24-5.55V38.15q0-5.67,5.24-5.67,4.8,0,4.8,5.59v5.82H133V38.11a3.35,3.35,0,0,0-.45-1.94,1.85,1.85,0,0,0-1.61-.62c-1.45,0-2.18.86-2.18,2.56V60.46c0,1.73.73,2.59,2.18,2.59a1.86,1.86,0,0,0,1.6-.64,3.4,3.4,0,0,0,.46-1.95Zm6.31,12.05V32.84H148v3.07h-5.68v11.5h4v3.07h-4V62.69h5.88v3h-8.92Zm25.87-8.3q-.53-4.23-1-8.4t-1-8.44q-.53,4.27-1.06,8.44t-1.1,8.4Zm1.08,8.3-.72-5.5h-4.92l-.72,5.5h-3l4.52-32.84H165l4.28,32.84Zm13.83-26.89a3.3,3.3,0,0,0-.6-2.18,2.59,2.59,0,0,0-2-.7h-2.08V47.13h2.12a2.59,2.59,0,0,0,2-.68,3.16,3.16,0,0,0,.64-2.2V38.79ZM172.3,65.68V32.84h5.14a5.66,5.66,0,0,1,4.27,1.44,6.32,6.32,0,0,1,1.39,4.51v5.38c0,2.08-.46,3.58-1.37,4.51a5.74,5.74,0,0,1-4.26,1.4h-2.13v15.6Zm21.63-26.89a3.3,3.3,0,0,0-.6-2.18,2.59,2.59,0,0,0-2-.7h-2.08V47.13h2.12a2.59,2.59,0,0,0,2-.68,3.16,3.16,0,0,0,.64-2.2V38.79Zm-7.76,26.89V32.84h5.14a5.68,5.68,0,0,1,4.27,1.44A6.32,6.32,0,0,1,197,38.79v5.38c0,2.08-.46,3.58-1.37,4.51a5.74,5.74,0,0,1-4.26,1.4h-2.13v15.6ZM206.84,56c0-.48,0-.89,0-1.22a3.62,3.62,0,0,0-.16-.86,2.87,2.87,0,0,0-.32-.66,7.13,7.13,0,0,0-.48-.65c-.4-.48-.8-.93-1.2-1.34s-.82-.83-1.24-1.24-.87-.87-1.3-1.32-.9-1-1.38-1.57a3.68,3.68,0,0,1-.93-1.9,16.05,16.05,0,0,1-.14-2.37V37.91q0-5.43,5.11-5.43c1.84,0,3.13.45,3.88,1.34a6.24,6.24,0,0,1,1.12,4.09v6h-2.84V38.31a4.13,4.13,0,0,0-.42-2,1.73,1.73,0,0,0-1.66-.76c-1.41,0-2.12.79-2.12,2.36v4.87a6,6,0,0,0,.14,1.51,3.34,3.34,0,0,0,.58,1A23.86,23.86,0,0,0,205.9,48a28.61,28.61,0,0,1,2.54,2.67,5.35,5.35,0,0,1,1.16,2.15,13.11,13.11,0,0,1,.28,3.08v4.71a6.07,6.07,0,0,1-1.18,4,6.21,6.21,0,0,1-7.83,0,5.92,5.92,0,0,1-1.22-4v-7h2.91v6.55a4.17,4.17,0,0,0,.46,2.07,1.76,1.76,0,0,0,1.66.8,2,2,0,0,0,1.66-.62,2.83,2.83,0,0,0,.5-1.81V56Z"/><path class="cls-1" d="M60.73,28.86l-.11.15a7.11,7.11,0,0,1-1,1.07,7.11,7.11,0,0,1-4.72,1.82,7.07,7.07,0,0,1-7.07-7.06,6.89,6.89,0,0,1,.36-2.19A7.14,7.14,0,0,1,49.81,20l.19-.2a7.06,7.06,0,0,1,10.73,9.08m4,21a30.81,30.81,0,1,1-18.2-28.06,8.81,8.81,0,0,0-.53,3,8.92,8.92,0,0,0,8.91,8.9,8.8,8.8,0,0,0,4.44-1.19A30.62,30.62,0,0,1,64.74,49.9m14.79-29a.81.81,0,0,0-1.08-.42l-15,6.92a10.18,10.18,0,0,0,.33-1.59l.09,0,7.73-6.17a.82.82,0,0,0,.1-1.15.8.8,0,0,0-1.08-.16l-6.85,5.47a8.88,8.88,0,0,0-2.06-4.68l6.94-6.76a.82.82,0,0,0-1.1-1.21l-7,6.83A8.88,8.88,0,0,0,56,16l5.42-6.77a.82.82,0,0,0-1.24-1.07L53.86,16a8.89,8.89,0,0,0-1.93.45L59,1.16A.82.82,0,0,0,57.51.45l-8,17.32a9.28,9.28,0,0,0-1.1,1c-.13.13-.25.25-.35.37A33.89,33.89,0,1,0,61.75,30.54l.25-.3c.13-.17.25-.35.37-.53h0L79.12,22a.81.81,0,0,0,.42-1.07h0"/><path class="cls-2" d="M86.62,21.1a.2.2,0,0,1,.19-.19H88a.2.2,0,0,1,.19.19v6.61a.2.2,0,0,1-.19.19h-1.2a.2.2,0,0,1-.19-.19Z"/><path class="cls-2" d="M93.71,21a.19.19,0,0,1,.19-.18h.25l4,3.83h0V21.1a.19.19,0,0,1,.19-.19h1.2a.2.2,0,0,1,.19.19v6.72a.19.19,0,0,1-.19.18h-.16a.29.29,0,0,1-.13-.05l-4-4h0v3.73a.19.19,0,0,1-.19.19H93.91a.2.2,0,0,1-.19-.19Z"/><path class="cls-2" d="M106.15,22.38h-1.43a.19.19,0,0,1-.19-.19V21.1a.19.19,0,0,1,.19-.19h4.44a.19.19,0,0,1,.19.19v1.09a.19.19,0,0,1-.19.19h-1.43v5.33a.2.2,0,0,1-.19.19h-1.2a.2.2,0,0,1-.19-.19Z"/><path class="cls-2" d="M114.15,21.1a.19.19,0,0,1,.19-.19h4.14a.19.19,0,0,1,.19.19v1.09a.19.19,0,0,1-.19.19h-2.77v1.23H118a.2.2,0,0,1,.19.19v1.09a.19.19,0,0,1-.19.19h-2.28v1.35h2.77a.19.19,0,0,1,.19.19v1.09a.19.19,0,0,1-.19.19h-4.14a.19.19,0,0,1-.19-.19Z"/><path class="cls-2" d="M123.81,21.1a.19.19,0,0,1,.19-.19h3a2.13,2.13,0,0,1,.7,4.16l1.37,2.54a.19.19,0,0,1-.17.29h-1.33a.18.18,0,0,1-.16-.09l-1.33-2.65h-.69v2.55a.2.2,0,0,1-.19.19H124a.19.19,0,0,1-.19-.19Zm3,2.79a.8.8,0,0,0,.76-.8.77.77,0,0,0-.76-.76h-1.48v1.56Z"/><path class="cls-2" d="M134.3,21a.19.19,0,0,1,.19-.18h.25l4,3.83h0V21.1a.19.19,0,0,1,.19-.19h1.2a.2.2,0,0,1,.19.19v6.72a.19.19,0,0,1-.19.18H140a.29.29,0,0,1-.13-.05l-4-4h0v3.73a.19.19,0,0,1-.19.19H134.5a.2.2,0,0,1-.19-.19Z"/><path class="cls-2" d="M144.94,27.64l3.13-6.72a.2.2,0,0,1,.17-.11h.1a.2.2,0,0,1,.17.11l3.13,6.72a.18.18,0,0,1-.17.26h-1.11c-.18,0-.26-.06-.35-.25l-.36-.79h-2.72l-.36.8a.37.37,0,0,1-.36.24h-1.1A.18.18,0,0,1,144.94,27.64Zm4.11-2.14-.76-1.65h0l-.75,1.65Z"/><path class="cls-2" d="M156.8,22.38h-1.43a.19.19,0,0,1-.19-.19V21.1a.19.19,0,0,1,.19-.19h4.44a.19.19,0,0,1,.19.19v1.09a.19.19,0,0,1-.19.19h-1.43v5.33a.2.2,0,0,1-.19.19H157a.2.2,0,0,1-.19-.19Z"/><path class="cls-2" d="M164.8,21.1a.2.2,0,0,1,.19-.19h1.2a.2.2,0,0,1,.19.19v6.61a.2.2,0,0,1-.19.19H165a.2.2,0,0,1-.19-.19Z"/><path class="cls-2" d="M175,20.81a3.6,3.6,0,1,1-3.59,3.6A3.59,3.59,0,0,1,175,20.81Zm0,5.59a2,2,0,1,0-2-2A2,2,0,0,0,175,26.4Z"/><path class="cls-2" d="M183.58,21a.19.19,0,0,1,.19-.18H184l4,3.83h0V21.1a.19.19,0,0,1,.19-.19h1.2a.2.2,0,0,1,.19.19v6.72a.19.19,0,0,1-.19.18h-.16a.29.29,0,0,1-.13-.05l-4-4h0v3.73a.19.19,0,0,1-.19.19h-1.19a.2.2,0,0,1-.19-.19Z"/><path class="cls-2" d="M194.22,27.64l3.13-6.72a.2.2,0,0,1,.17-.11h.1a.2.2,0,0,1,.17.11l3.13,6.72a.18.18,0,0,1-.17.26h-1.11c-.18,0-.26-.06-.35-.25l-.36-.79h-2.72l-.36.8a.37.37,0,0,1-.36.24h-1.1A.18.18,0,0,1,194.22,27.64Zm4.11-2.14-.76-1.65h0l-.75,1.65Z"/><path class="cls-2" d="M205.54,21.1a.19.19,0,0,1,.19-.19h1.19a.2.2,0,0,1,.19.19v5.33h2.38a.19.19,0,0,1,.19.19v1.09a.19.19,0,0,1-.19.19h-3.76a.19.19,0,0,1-.19-.19Z"/><path class="cls-2" d="M91.61,70.81A4.74,4.74,0,0,1,95,72.11a.27.27,0,0,1,0,.4l-1.1,1.13a.24.24,0,0,1-.35,0,2.84,2.84,0,0,0-1.89-.71,2.87,2.87,0,0,0,0,5.73A2.91,2.91,0,0,0,93.57,78a.29.29,0,0,1,.37,0L95,79.16a.28.28,0,0,1,0,.38,4.85,4.85,0,0,1-3.41,1.36,5,5,0,1,1,0-10.09Z"/><path class="cls-2" d="M102,71.22a.28.28,0,0,1,.27-.27H104a.27.27,0,0,1,.26.27v3.53h4V71.22a.27.27,0,0,1,.26-.27h1.67a.28.28,0,0,1,.27.27v9.27a.28.28,0,0,1-.27.27h-1.67a.27.27,0,0,1-.26-.27V76.81h-4v3.68a.27.27,0,0,1-.26.27h-1.67a.28.28,0,0,1-.27-.27Z"/><path class="cls-2" d="M116.88,80.39,121.26,71a.29.29,0,0,1,.24-.16h.14a.28.28,0,0,1,.24.16l4.39,9.42a.25.25,0,0,1-.24.37h-1.56c-.25,0-.36-.09-.49-.35l-.5-1.11h-3.81l-.51,1.12a.52.52,0,0,1-.5.34h-1.54A.25.25,0,0,1,116.88,80.39Zm5.76-3-1.07-2.32h0l-1,2.32Z"/><path class="cls-2" d="M132.73,71.22A.27.27,0,0,1,133,71h1.67a.28.28,0,0,1,.27.27V78.7h3.33a.26.26,0,0,1,.27.26v1.53a.27.27,0,0,1-.27.27H133a.27.27,0,0,1-.26-.27Z"/><path class="cls-2" d="M145.2,71.22a.27.27,0,0,1,.27-.27h1.67a.27.27,0,0,1,.26.27V78.7h3.34A.26.26,0,0,1,151,79v1.53a.27.27,0,0,1-.26.27h-5.27a.27.27,0,0,1-.27-.27Z"/><path class="cls-2" d="M157.68,71.22a.27.27,0,0,1,.26-.27h5.8a.27.27,0,0,1,.27.27v1.52a.27.27,0,0,1-.27.27h-3.88v1.74h3.2a.26.26,0,0,1,.26.26v1.53a.27.27,0,0,1-.26.27h-3.2V78.7h3.88A.26.26,0,0,1,164,79v1.53a.27.27,0,0,1-.27.27h-5.8a.27.27,0,0,1-.26-.27Z"/><path class="cls-2" d="M171.19,71.06a.26.26,0,0,1,.26-.25h.35l5.59,5.38h0v-5a.27.27,0,0,1,.26-.27h1.68a.28.28,0,0,1,.27.27v9.42a.27.27,0,0,1-.27.26h-.22a.48.48,0,0,1-.18-.07l-5.54-5.56h0v5.22a.27.27,0,0,1-.27.27h-1.66a.28.28,0,0,1-.27-.27Z"/><path class="cls-2" d="M191.67,70.83a5.43,5.43,0,0,1,3.42,1.31.25.25,0,0,1,0,.38L194,73.7a.32.32,0,0,1-.38,0A2.57,2.57,0,0,0,191.8,73a2.81,2.81,0,0,0,0,5.62,3.29,3.29,0,0,0,1.25-.23v-.81h-.89a.25.25,0,0,1-.26-.25V76a.26.26,0,0,1,.26-.27H195a.27.27,0,0,1,.25.27l0,3.77a.32.32,0,0,1-.12.22,7.06,7.06,0,0,1-3.47.91,5,5,0,1,1,0-10Z"/><path class="cls-2" d="M202.49,71.22a.27.27,0,0,1,.27-.27h5.8a.27.27,0,0,1,.26.27v1.52a.27.27,0,0,1-.26.27h-3.89v1.74h3.2a.26.26,0,0,1,.26.26v1.53a.27.27,0,0,1-.26.27h-3.2V78.7h3.89a.26.26,0,0,1,.26.26v1.53a.27.27,0,0,1-.26.27h-5.8a.27.27,0,0,1-.27-.27Z"/><path class="cls-3" d="M134.67,7.5a.19.19,0,0,1,.19-.18h.25l4,3.83h0V7.61a.19.19,0,0,1,.19-.19h1.2a.2.2,0,0,1,.19.19v6.72a.19.19,0,0,1-.19.18h-.16a.29.29,0,0,1-.13,0l-4-4h0v3.73a.19.19,0,0,1-.19.19h-1.19a.2.2,0,0,1-.19-.19Z"/><path class="cls-3" d="M142.11,14.15l3.13-6.72a.2.2,0,0,1,.17-.11h.1a.2.2,0,0,1,.17.11l3.13,6.72a.18.18,0,0,1-.17.26h-1.11c-.18,0-.26-.06-.35-.25l-.36-.79H144.1l-.36.8a.37.37,0,0,1-.36.24h-1.1A.18.18,0,0,1,142.11,14.15ZM146.22,12l-.76-1.65h0L144.7,12Z"/><path class="cls-3" d="M149.83,13.46l.47-.83a.26.26,0,0,1,.34-.06,3,3,0,0,0,1.42.55.63.63,0,0,0,.69-.6c0-.42-.35-.74-1-1-.86-.34-1.94-1-1.94-2.21a2.07,2.07,0,0,1,2.31-2,3.8,3.8,0,0,1,2.14.74.26.26,0,0,1,.06.32l-.51.77c-.07.11-.25.2-.34.13a3.13,3.13,0,0,0-1.43-.6.58.58,0,0,0-.63.51c0,.37.3.65,1.09,1s2,.92,2,2.28a2.2,2.2,0,0,1-2.36,2.07,3.17,3.17,0,0,1-2.25-.77C149.78,13.64,149.75,13.6,149.83,13.46Z"/><path class="cls-3" d="M155.41,14.15l3.13-6.72a.2.2,0,0,1,.17-.11h.1a.2.2,0,0,1,.17.11l3.13,6.72a.18.18,0,0,1-.17.26h-1.11c-.18,0-.26-.06-.35-.25l-.36-.79H157.4l-.36.8a.37.37,0,0,1-.36.24h-1.1A.18.18,0,0,1,155.41,14.15ZM159.52,12l-.76-1.65h0L158,12Z"/></g></g></svg>
